<svg xmlns="http://www.w3.org/2000/svg" xmlns:xlink="http://www.w3.org/1999/xlink" width="24" height="24" viewBox="0 0 24 24">
<g transform="scale(1.3) translate(-3, 0.6)">
<rect x="10.5" y="1.2" width="3" height="4.7" rx="0.8" 
 fill="none" stroke="#444444"  stroke-width="1.2" stroke-linjoin="round" stroke-linecap="round"/>
<path d="M4 10.5
V19 
A2 2 0 0 0 5.2 21 
H18.8
A2 2 0 0 0 19.8 19 
V10.5"
fill="none" stroke="#444444" stroke-width="1.5" stroke-linjoin="round" stroke-linecap="round" transform="translate(0, -6)"/>
<path d= "M4.2 9.2 H10" fill="none" stroke="#444444"  stroke-width="1.5" stroke-linjoin="round" stroke-linecap="round" transform="translate(0, -5)"/>
<path d= "M14 9.2 H19.6" fill="none" stroke="#444444"  stroke-width="1.5" stroke-linjoin="round" stroke-linecap="round" transform="translate(0,  -5)"/>
<g fill="none" stroke="#444444">
<path d="M12.3 9 H17.3" stroke-linjoin="round" stroke-linecap="round"/>
<path d="M12.3 11.8 H17.3" stroke-linjoin="round" stroke-linecap="round"/>
</g>
<g fill="#444444" stroke="none">
<circle cx="8.3" cy="8.8" r="1.4" stroke-width="1.8" stroke-linecap="round"/>
<path d="M6.2 17 C6.2 15.4 7.6 14.4 8.4 14.4 C9.2 14.4 10.6 15.4 10.6 17 Z" transform="translate(0, -4)"/>
</g>
</g>
</svg>